<?xml version="1.0" encoding="UTF-8"?>
<svg id="Layer_1" data-name="Layer 1" xmlns="http://www.w3.org/2000/svg" viewBox="0 0 85 83">
  <defs>
    <style>
      .cls-1 {
        fill: #fff;
      }

      .cls-2 {
        fill: #eb1000;
      }
    </style>
  </defs>
  <path class="cls-2" d="m15.05,0h54.9c8.32,0,15.05,6.74,15.05,15.07v52.85c0,8.34-6.73,15.07-15.05,15.07H15.05c-8.32,0-15.05-6.74-15.05-15.07V15.07C0,6.74,6.73,0,15.05,0Z"/>
  <path id="_256" data-name=" 256" class="cls-1" d="m66.09,62.43h-10.09c-.89,0-1.7-.5-2.05-1.35l-10.94-25.68c-.07-.25-.35-.39-.6-.32-.14.04-.28.18-.32.32l-6.84,16.28c-.14.28,0,.64.32.74.07.04.14.04.21.04h7.51c.46,0,.89.28,1.06.71l3.29,7.34c.28.67-.04,1.49-.71,1.77-.18.07-.35.11-.53.11h-27.38c-.67,0-1.24-.57-1.24-1.24,0-.18.04-.32.11-.5l17.39-41.46c.35-.89,1.24-1.49,2.2-1.45h10.02c.96,0,1.84.57,2.2,1.45l17.53,41.46c.28.64-.04,1.38-.64,1.63-.18.07-.32.11-.5.14Z"/>
</svg>